M48
INCH,LZ
;FILE_FORMAT=2:4
;TYPE=PLATED
;Layer: PTH_Through
;EasyEDA v6.5.22, 2022-12-22 11:17:51
;ce4e8ce13fa74190b801a80eed42a14c,57500b8d1a72451d9db585c8b3981418,10
;Gerber Generator version 0.2
;Holesize 1 = 0.0200 inch
T01C0.0200
;Holesize 2 = 0.0400 inch
T02C0.0400
;Holesize 3 = 0.0910 inch
T03C0.0910
%
G05
G90
T01
X006793Y003293G85X006793Y003291
X007285Y003293G85X007285Y003291
X007778Y003293G85X007778Y003291
X008270Y003293G85X008270Y003291
X008762Y003293G85X008762Y003291
X009254Y003293G85X009254Y003291
X009746Y003293G85X009746Y003291
X010238Y003293G85X010238Y003291
X010730Y003293G85X010730Y003291
X011222Y003293G85X011222Y003291
X011715Y003293G85X011715Y003291
X012207Y003293G85X012207Y003291
T02
X013818Y011858G85X013820Y011858
X013818Y010858G85X013820Y010858
X013818Y009858G85X013820Y009858
X013818Y008858G85X013820Y008858
X013818Y007858G85X013820Y007858
X004800Y006499G85X004800Y006501
X005800Y006499G85X005800Y006501
X006800Y006499G85X006800Y006501
X007800Y006499G85X007800Y006501
T03
X001043Y000847G85X001043Y000847
X013685Y000847G85X013685Y000847
X007484Y019760G85X007484Y019760
M30
