G04 Layer: BottomSilkscreenLayer*
G04 EasyEDA v6.5.22, 2022-12-22 11:17:51*
G04 ce4e8ce13fa74190b801a80eed42a14c,57500b8d1a72451d9db585c8b3981418,10*
G04 Gerber Generator version 0.2*
G04 Scale: 100 percent, Rotated: No, Reflected: No *
G04 Dimensions in inches *
G04 leading zeros omitted , absolute positions ,3 integer and 6 decimal *
%FSLAX36Y36*%
%MOIN*%

%ADD10C,0.0032*%

%LPD*%
D10*
X490000Y340364D02*
G01*
X490000Y302182D01*
X490000Y340364D02*
G01*
X475454Y302182D01*
X460909Y340364D02*
G01*
X475454Y302182D01*
X460909Y340364D02*
G01*
X460909Y302182D01*
X448909Y340364D02*
G01*
X448909Y313091D01*
X447091Y307636D01*
X443455Y304000D01*
X438000Y302182D01*
X434364Y302182D01*
X428909Y304000D01*
X425272Y307636D01*
X423455Y313091D01*
X423455Y340364D01*
X386000Y334909D02*
G01*
X389636Y338545D01*
X395090Y340364D01*
X402364Y340364D01*
X407817Y338545D01*
X411455Y334909D01*
X411455Y331273D01*
X409636Y327635D01*
X407817Y325818D01*
X404182Y324000D01*
X393273Y320364D01*
X389636Y318545D01*
X387817Y316727D01*
X386000Y313091D01*
X386000Y307636D01*
X389636Y304000D01*
X395090Y302182D01*
X402364Y302182D01*
X407817Y304000D01*
X411455Y307636D01*
X361273Y340364D02*
G01*
X361273Y302182D01*
X374000Y340364D02*
G01*
X348545Y340364D01*
X322000Y340364D02*
G01*
X336545Y302182D01*
X322000Y340364D02*
G01*
X307455Y302182D01*
X331091Y314909D02*
G01*
X312909Y314909D01*
X295455Y340364D02*
G01*
X295455Y302182D01*
X295455Y340364D02*
G01*
X279091Y340364D01*
X273636Y338545D01*
X271818Y336727D01*
X270000Y333091D01*
X270000Y329455D01*
X271818Y325818D01*
X273636Y324000D01*
X279091Y322182D01*
X295455Y322182D01*
X282727Y322182D02*
G01*
X270000Y302182D01*
X258000Y340364D02*
G01*
X258000Y302182D01*
X258000Y340364D02*
G01*
X245273Y340364D01*
X239818Y338545D01*
X236182Y334909D01*
X234364Y331273D01*
X232545Y325818D01*
X232545Y316727D01*
X234364Y311273D01*
X236182Y307636D01*
X239818Y304000D01*
X245273Y302182D01*
X258000Y302182D01*
X207818Y340364D02*
G01*
X207818Y302182D01*
X220545Y340364D02*
G01*
X195091Y340364D01*
X183091Y340364D02*
G01*
X183091Y302182D01*
X143818Y331273D02*
G01*
X145636Y334909D01*
X149273Y338545D01*
X152909Y340364D01*
X160182Y340364D01*
X163817Y338545D01*
X167455Y334909D01*
X169273Y331273D01*
X171091Y325818D01*
X171091Y316727D01*
X169273Y311273D01*
X167455Y307636D01*
X163817Y304000D01*
X160182Y302182D01*
X152909Y302182D01*
X149273Y304000D01*
X145636Y307636D01*
X143818Y311273D01*
X143818Y316727D01*
X152909Y316727D02*
G01*
X143818Y316727D01*
X131818Y340364D02*
G01*
X131818Y302182D01*
X131818Y340364D02*
G01*
X108181Y340364D01*
X131818Y322182D02*
G01*
X117273Y322182D01*
X131818Y302182D02*
G01*
X108181Y302182D01*
X96182Y340364D02*
G01*
X96182Y302182D01*
X96182Y340364D02*
G01*
X79818Y340364D01*
X74364Y338545D01*
X72545Y336727D01*
X70727Y333091D01*
X70727Y329455D01*
X72545Y325818D01*
X74364Y324000D01*
X79818Y322182D01*
X96182Y322182D01*
X83455Y322182D02*
G01*
X70727Y302182D01*
M02*
