G04 Layer: TopLayer*
G04 EasyEDA v6.5.22, 2022-12-22 11:17:51*
G04 ce4e8ce13fa74190b801a80eed42a14c,57500b8d1a72451d9db585c8b3981418,10*
G04 Gerber Generator version 0.2*
G04 Scale: 100 percent, Rotated: No, Reflected: No *
G04 Dimensions in inches *
G04 leading zeros omitted , absolute positions ,3 integer and 6 decimal *
%FSLAX36Y36*%
%MOIN*%

%ADD10C,0.0100*%
%ADD11C,0.0200*%
%ADD12R,0.0600X0.0600*%
%ADD13C,0.0600*%
%ADD14O,0.039689999999999996X0.07937*%
%ADD15C,0.1417*%
%ADD16C,0.0157*%
%ADD17C,0.0298*%

%LPD*%
G36*
X56980Y6200D02*
G01*
X55460Y6500D01*
X54160Y7380D01*
X7380Y54160D01*
X6500Y55460D01*
X6200Y56980D01*
X6200Y1176880D01*
X6500Y1178400D01*
X7380Y1179700D01*
X114420Y1286759D01*
X115600Y1288340D01*
X116199Y1289780D01*
X116440Y1291440D01*
X116440Y1759640D01*
X116740Y1761140D01*
X117579Y1762420D01*
X399080Y2051639D01*
X400400Y2052540D01*
X401940Y2052840D01*
X704640Y2052840D01*
X706340Y2052480D01*
X707720Y2051399D01*
X708500Y2049860D01*
X708560Y2048120D01*
X707880Y2046519D01*
X706580Y2045360D01*
X705639Y2044840D01*
X699200Y2040380D01*
X693220Y2035340D01*
X687740Y2029740D01*
X682840Y2023620D01*
X678540Y2017080D01*
X674900Y2010140D01*
X671960Y2002880D01*
X669720Y1995380D01*
X668220Y1987700D01*
X667460Y1979900D01*
X667460Y1972060D01*
X668220Y1964259D01*
X669720Y1956579D01*
X671960Y1949079D01*
X674900Y1941819D01*
X678540Y1934880D01*
X682840Y1928340D01*
X687740Y1922220D01*
X693220Y1916620D01*
X699200Y1911579D01*
X705639Y1907120D01*
X712500Y1903320D01*
X719680Y1900180D01*
X727120Y1897760D01*
X734780Y1896080D01*
X742540Y1895140D01*
X750380Y1894940D01*
X758199Y1895520D01*
X765920Y1896819D01*
X773460Y1898880D01*
X780800Y1901660D01*
X787820Y1905140D01*
X794460Y1909259D01*
X800699Y1914019D01*
X806420Y1919360D01*
X811620Y1925220D01*
X816220Y1931560D01*
X820200Y1938300D01*
X823500Y1945420D01*
X826100Y1952800D01*
X827980Y1960400D01*
X829100Y1968160D01*
X829479Y1975980D01*
X829100Y1983800D01*
X827980Y1991560D01*
X826100Y1999160D01*
X823500Y2006540D01*
X820200Y2013660D01*
X816220Y2020400D01*
X811620Y2026740D01*
X806420Y2032600D01*
X800699Y2037940D01*
X794460Y2042700D01*
X790020Y2045460D01*
X788800Y2046639D01*
X788180Y2048240D01*
X788280Y2049940D01*
X789100Y2051459D01*
X790460Y2052480D01*
X792140Y2052840D01*
X991080Y2052840D01*
X992600Y2052560D01*
X993900Y2051699D01*
X1358760Y1691500D01*
X1359640Y1690180D01*
X1359940Y1688640D01*
X1359940Y1342020D01*
X1360220Y1340060D01*
X1360820Y1338620D01*
X1361840Y1337280D01*
X1436720Y1262380D01*
X1437580Y1261080D01*
X1437900Y1259560D01*
X1437900Y628640D01*
X1438180Y626680D01*
X1438760Y625240D01*
X1439780Y623900D01*
X1512300Y551360D01*
X1513180Y550060D01*
X1513480Y548520D01*
X1513480Y48720D01*
X1513180Y47180D01*
X1512300Y45880D01*
X1473800Y7380D01*
X1472500Y6500D01*
X1470960Y6200D01*
X1409620Y6200D01*
X1407960Y6560D01*
X1406579Y7600D01*
X1405780Y9100D01*
X1405680Y10820D01*
X1406300Y12420D01*
X1407520Y13600D01*
X1414560Y17940D01*
X1420780Y22700D01*
X1426500Y28020D01*
X1431699Y33900D01*
X1436300Y40220D01*
X1440280Y46980D01*
X1443580Y54080D01*
X1446180Y61480D01*
X1448060Y69080D01*
X1449180Y76820D01*
X1449560Y84640D01*
X1449180Y92480D01*
X1448060Y100220D01*
X1446180Y107820D01*
X1443580Y115220D01*
X1440280Y122320D01*
X1436300Y129080D01*
X1431699Y135400D01*
X1426500Y141280D01*
X1420780Y146600D01*
X1414540Y151360D01*
X1407900Y155500D01*
X1400880Y158960D01*
X1393540Y161740D01*
X1386000Y163800D01*
X1378280Y165120D01*
X1370460Y165680D01*
X1362620Y165500D01*
X1354860Y164560D01*
X1347200Y162860D01*
X1339760Y160440D01*
X1332580Y157320D01*
X1325720Y153500D01*
X1319280Y149060D01*
X1313300Y144000D01*
X1307820Y138400D01*
X1302920Y132300D01*
X1298620Y125740D01*
X1294980Y118800D01*
X1292040Y111560D01*
X1289800Y104040D01*
X1288300Y96359D01*
X1287540Y88560D01*
X1287540Y80740D01*
X1288300Y72940D01*
X1289800Y65260D01*
X1292040Y57740D01*
X1294980Y50500D01*
X1298620Y43560D01*
X1302920Y37000D01*
X1307820Y30900D01*
X1313300Y25299D01*
X1319280Y20240D01*
X1325720Y15800D01*
X1329500Y13700D01*
X1330800Y12540D01*
X1331480Y10940D01*
X1331420Y9200D01*
X1330640Y7640D01*
X1329259Y6580D01*
X1327560Y6200D01*
X1276140Y6200D01*
X1274780Y6440D01*
X1273580Y7120D01*
X1163240Y99060D01*
X1161480Y100160D01*
X1160800Y100399D01*
X1158760Y100680D01*
X268000Y100680D01*
X266040Y100399D01*
X264740Y99880D01*
X263360Y98900D01*
X167960Y7320D01*
X166680Y6480D01*
X165180Y6200D01*
X145460Y6200D01*
X143780Y6560D01*
X142420Y7600D01*
X141600Y9100D01*
X141500Y10820D01*
X142120Y12420D01*
X143360Y13600D01*
X150380Y17940D01*
X156600Y22700D01*
X162340Y28020D01*
X167540Y33900D01*
X172140Y40220D01*
X176100Y46980D01*
X179400Y54080D01*
X182000Y61480D01*
X183880Y69080D01*
X185020Y76820D01*
X185400Y84640D01*
X185020Y92480D01*
X183880Y100220D01*
X182000Y107820D01*
X179400Y115220D01*
X176100Y122320D01*
X172140Y129080D01*
X167540Y135400D01*
X162340Y141280D01*
X156600Y146600D01*
X150380Y151360D01*
X143720Y155500D01*
X136700Y158960D01*
X129380Y161740D01*
X121820Y163800D01*
X114100Y165120D01*
X106280Y165680D01*
X98460Y165500D01*
X90680Y164560D01*
X83040Y162860D01*
X75580Y160440D01*
X68400Y157320D01*
X61560Y153500D01*
X55119Y149060D01*
X49120Y144000D01*
X43660Y138400D01*
X38760Y132300D01*
X34460Y125740D01*
X30820Y118800D01*
X27860Y111560D01*
X25620Y104040D01*
X24120Y96359D01*
X23360Y88560D01*
X23360Y80740D01*
X24120Y72940D01*
X25620Y65260D01*
X27860Y57740D01*
X30820Y50500D01*
X34460Y43560D01*
X38760Y37000D01*
X43660Y30900D01*
X49120Y25299D01*
X55119Y20240D01*
X61560Y15800D01*
X65320Y13700D01*
X66640Y12540D01*
X67320Y10940D01*
X67260Y9200D01*
X66460Y7640D01*
X65080Y6580D01*
X63380Y6200D01*
G37*

%LPC*%
G36*
X590140Y204800D02*
G01*
X789920Y204800D01*
X791260Y204860D01*
X793000Y205100D01*
X794180Y205400D01*
X795840Y205980D01*
X796960Y206500D01*
X798460Y207380D01*
X799460Y208100D01*
X800759Y209280D01*
X801600Y210180D01*
X802640Y211580D01*
X803340Y212719D01*
X840180Y279460D01*
X841360Y282180D01*
X841940Y283140D01*
X842780Y283900D01*
X845699Y285880D01*
X848860Y288820D01*
X850120Y289620D01*
X851580Y289880D01*
X853040Y289620D01*
X854300Y288820D01*
X857460Y285880D01*
X861160Y283360D01*
X865200Y281420D01*
X869500Y280080D01*
X873940Y279420D01*
X878420Y279420D01*
X882860Y280080D01*
X887159Y281420D01*
X891200Y283360D01*
X894900Y285880D01*
X898060Y288820D01*
X899320Y289620D01*
X900780Y289880D01*
X902240Y289620D01*
X903500Y288820D01*
X906660Y285880D01*
X910380Y283360D01*
X914419Y281420D01*
X918700Y280080D01*
X923139Y279420D01*
X927640Y279420D01*
X932080Y280080D01*
X936360Y281420D01*
X940400Y283360D01*
X944120Y285880D01*
X947280Y288820D01*
X948540Y289620D01*
X950000Y289900D01*
X951460Y289620D01*
X952720Y288820D01*
X955879Y285880D01*
X959599Y283360D01*
X963640Y281420D01*
X967920Y280080D01*
X972360Y279420D01*
X976860Y279420D01*
X981300Y280080D01*
X985580Y281420D01*
X989620Y283360D01*
X993340Y285880D01*
X996500Y288820D01*
X997760Y289620D01*
X999220Y289880D01*
X1000680Y289620D01*
X1001940Y288820D01*
X1005100Y285880D01*
X1008800Y283360D01*
X1012840Y281420D01*
X1017140Y280080D01*
X1021580Y279420D01*
X1026060Y279420D01*
X1030500Y280080D01*
X1034800Y281420D01*
X1038840Y283360D01*
X1042540Y285880D01*
X1045699Y288820D01*
X1046960Y289620D01*
X1048420Y289880D01*
X1049880Y289620D01*
X1051140Y288820D01*
X1054300Y285880D01*
X1058020Y283360D01*
X1062060Y281420D01*
X1066340Y280080D01*
X1070780Y279420D01*
X1075280Y279420D01*
X1079720Y280080D01*
X1084000Y281420D01*
X1088040Y283360D01*
X1091760Y285880D01*
X1094920Y288820D01*
X1096180Y289620D01*
X1097640Y289880D01*
X1099100Y289620D01*
X1100360Y288820D01*
X1103520Y285880D01*
X1107220Y283360D01*
X1111260Y281420D01*
X1115560Y280080D01*
X1120000Y279420D01*
X1124480Y279420D01*
X1128920Y280080D01*
X1133220Y281420D01*
X1137260Y283360D01*
X1140960Y285880D01*
X1144260Y288940D01*
X1147060Y292460D01*
X1149300Y296340D01*
X1150940Y300520D01*
X1151940Y304900D01*
X1152280Y309520D01*
X1152280Y348900D01*
X1151940Y353519D01*
X1150940Y357900D01*
X1149300Y362080D01*
X1147900Y364500D01*
X1147380Y366160D01*
X1147600Y367879D01*
X1148540Y369340D01*
X1222100Y442900D01*
X1223340Y444260D01*
X1224420Y445660D01*
X1225360Y447140D01*
X1226180Y448700D01*
X1226840Y450340D01*
X1227380Y452020D01*
X1227760Y453740D01*
X1227980Y455480D01*
X1228080Y457320D01*
X1228080Y912900D01*
X1228360Y914419D01*
X1229220Y915699D01*
X1277340Y964440D01*
X1278660Y965320D01*
X1280200Y965620D01*
X1344960Y965620D01*
X1346320Y965380D01*
X1347520Y964700D01*
X1352080Y958860D01*
X1355940Y955120D01*
X1360260Y951940D01*
X1364980Y949360D01*
X1369980Y947440D01*
X1375200Y946180D01*
X1380540Y945660D01*
X1385920Y945840D01*
X1391200Y946720D01*
X1396339Y948319D01*
X1401200Y950580D01*
X1405740Y953460D01*
X1409840Y956919D01*
X1413440Y960920D01*
X1416480Y965340D01*
X1418899Y970120D01*
X1420660Y975200D01*
X1421720Y980460D01*
X1422080Y985819D01*
X1421720Y991180D01*
X1420660Y996440D01*
X1418899Y1001520D01*
X1416480Y1006300D01*
X1413440Y1010720D01*
X1409840Y1014720D01*
X1405740Y1018180D01*
X1401200Y1021060D01*
X1396339Y1023319D01*
X1391200Y1024920D01*
X1385920Y1025800D01*
X1380540Y1025980D01*
X1375200Y1025460D01*
X1369980Y1024200D01*
X1364980Y1022280D01*
X1360260Y1019700D01*
X1355940Y1016520D01*
X1352080Y1012780D01*
X1347520Y1006940D01*
X1346320Y1006260D01*
X1344960Y1006020D01*
X1270180Y1006020D01*
X1268180Y1005920D01*
X1266580Y1005720D01*
X1264720Y1005300D01*
X1263180Y1004800D01*
X1261420Y1004060D01*
X1260000Y1003319D01*
X1258380Y1002280D01*
X1257100Y1001300D01*
X1255640Y999940D01*
X1195940Y939500D01*
X1194640Y938620D01*
X1193120Y938319D01*
X1191580Y938620D01*
X1190280Y939479D01*
X1189400Y940780D01*
X1189100Y942320D01*
X1189100Y1130900D01*
X1189400Y1132440D01*
X1190280Y1133740D01*
X1225240Y1168700D01*
X1226540Y1169580D01*
X1228060Y1169880D01*
X1337680Y1170400D01*
X1339199Y1170100D01*
X1340520Y1169240D01*
X1341380Y1167940D01*
X1341699Y1166400D01*
X1341699Y1156040D01*
X1341980Y1153560D01*
X1342720Y1151400D01*
X1343940Y1149480D01*
X1345540Y1147860D01*
X1347480Y1146660D01*
X1349620Y1145900D01*
X1352120Y1145620D01*
X1411660Y1145620D01*
X1414160Y1145900D01*
X1416300Y1146660D01*
X1418240Y1147860D01*
X1419840Y1149480D01*
X1421060Y1151400D01*
X1421800Y1153560D01*
X1422100Y1156040D01*
X1422100Y1215600D01*
X1421800Y1218080D01*
X1421060Y1220240D01*
X1419840Y1222160D01*
X1418240Y1223780D01*
X1416300Y1224980D01*
X1414160Y1225740D01*
X1411660Y1226020D01*
X1352120Y1226020D01*
X1349620Y1225740D01*
X1347480Y1224980D01*
X1345540Y1223780D01*
X1343940Y1222160D01*
X1342720Y1220240D01*
X1341980Y1218080D01*
X1341699Y1215600D01*
X1341699Y1204800D01*
X1341380Y1203280D01*
X1340520Y1201980D01*
X1339240Y1201120D01*
X1337700Y1200800D01*
X1220200Y1200240D01*
X1217120Y1199940D01*
X1214280Y1199060D01*
X1211640Y1197660D01*
X1209200Y1195640D01*
X1163300Y1149740D01*
X1161280Y1147300D01*
X1159880Y1144660D01*
X1159020Y1141820D01*
X1158700Y1138660D01*
X1158700Y478080D01*
X1158400Y476540D01*
X1157520Y475240D01*
X1110060Y427800D01*
X1108760Y426920D01*
X1107240Y426620D01*
X1052940Y426620D01*
X1049780Y426300D01*
X1046940Y425439D01*
X1044320Y424040D01*
X1041860Y422020D01*
X1013220Y393380D01*
X1011200Y390920D01*
X1009800Y388300D01*
X1008940Y385460D01*
X1008620Y382299D01*
X1008620Y377040D01*
X1008420Y375780D01*
X1007800Y374640D01*
X1006880Y373740D01*
X1005100Y372540D01*
X1001940Y369600D01*
X1000680Y368800D01*
X999220Y368540D01*
X997760Y368800D01*
X996500Y369600D01*
X993340Y372540D01*
X989620Y375060D01*
X985580Y377000D01*
X981300Y378340D01*
X976860Y379000D01*
X972360Y379000D01*
X967920Y378340D01*
X963640Y377000D01*
X959599Y375060D01*
X955879Y372540D01*
X952720Y369600D01*
X951460Y368800D01*
X950000Y368519D01*
X948540Y368800D01*
X947280Y369600D01*
X944120Y372540D01*
X942340Y373740D01*
X941400Y374640D01*
X940800Y375780D01*
X940600Y377040D01*
X940600Y630040D01*
X940900Y631560D01*
X941760Y632860D01*
X1068560Y759659D01*
X1069860Y760540D01*
X1071400Y760840D01*
X1075300Y760840D01*
X1079380Y761520D01*
X1083300Y762860D01*
X1086940Y764840D01*
X1090220Y767380D01*
X1093020Y770420D01*
X1095280Y773900D01*
X1096940Y777680D01*
X1097960Y781700D01*
X1098300Y785819D01*
X1097960Y789960D01*
X1096940Y793980D01*
X1095280Y797760D01*
X1093020Y801240D01*
X1090220Y804280D01*
X1086940Y806820D01*
X1083300Y808800D01*
X1079380Y810140D01*
X1075300Y810819D01*
X1071160Y810819D01*
X1067080Y810140D01*
X1063160Y808800D01*
X1059520Y806820D01*
X1056240Y804280D01*
X1053440Y801240D01*
X1051180Y797760D01*
X1049520Y793980D01*
X1048500Y789960D01*
X1048160Y785819D01*
X1048280Y784380D01*
X1048040Y782660D01*
X1047120Y781220D01*
X914780Y648880D01*
X912760Y646420D01*
X911360Y643800D01*
X910500Y640960D01*
X910200Y637800D01*
X910200Y377040D01*
X909980Y375780D01*
X909380Y374640D01*
X908439Y373740D01*
X906660Y372540D01*
X903500Y369600D01*
X902240Y368800D01*
X900780Y368540D01*
X899320Y368800D01*
X898060Y369600D01*
X894900Y372540D01*
X891200Y375060D01*
X887159Y377000D01*
X882860Y378340D01*
X878420Y379000D01*
X873940Y379000D01*
X869500Y378340D01*
X865200Y377000D01*
X861160Y375060D01*
X857460Y372540D01*
X854300Y369600D01*
X853040Y368800D01*
X851580Y368540D01*
X850120Y368800D01*
X848860Y369600D01*
X845699Y372540D01*
X841979Y375060D01*
X837940Y377000D01*
X833660Y378340D01*
X829220Y379000D01*
X824720Y379000D01*
X820280Y378340D01*
X816000Y377000D01*
X811960Y375060D01*
X808240Y372540D01*
X805080Y369600D01*
X803820Y368800D01*
X802360Y368540D01*
X800900Y368800D01*
X799640Y369600D01*
X796480Y372540D01*
X794700Y373740D01*
X793780Y374640D01*
X793160Y375780D01*
X792960Y377040D01*
X792960Y452060D01*
X792640Y455220D01*
X791780Y458060D01*
X790380Y460680D01*
X788360Y463140D01*
X618840Y632660D01*
X617980Y633940D01*
X617660Y635420D01*
X617940Y636940D01*
X618380Y638100D01*
X619640Y643319D01*
X620160Y648660D01*
X619980Y654040D01*
X619100Y659320D01*
X617500Y664460D01*
X615240Y669320D01*
X612360Y673860D01*
X608900Y677960D01*
X604900Y681560D01*
X600480Y684599D01*
X595700Y687020D01*
X590620Y688780D01*
X585360Y689840D01*
X580000Y690200D01*
X574640Y689840D01*
X569380Y688780D01*
X564300Y687020D01*
X559520Y684599D01*
X555100Y681560D01*
X551100Y677960D01*
X547640Y673860D01*
X544760Y669320D01*
X542500Y664460D01*
X540900Y659320D01*
X540020Y654040D01*
X539840Y648660D01*
X540360Y643319D01*
X541620Y638100D01*
X543540Y633100D01*
X546120Y628380D01*
X549300Y624060D01*
X553040Y620200D01*
X557260Y616880D01*
X561880Y614140D01*
X566820Y612040D01*
X572000Y610620D01*
X577320Y609900D01*
X582680Y609900D01*
X588000Y610620D01*
X593500Y612140D01*
X594900Y612280D01*
X596260Y611920D01*
X597400Y611120D01*
X761380Y447120D01*
X762260Y445820D01*
X762560Y444300D01*
X762560Y377040D01*
X762360Y375780D01*
X761740Y374640D01*
X760819Y373740D01*
X759040Y372540D01*
X755740Y369480D01*
X752940Y365959D01*
X750699Y362080D01*
X749060Y357900D01*
X748060Y353519D01*
X747720Y348900D01*
X747720Y309520D01*
X748060Y304900D01*
X749060Y300520D01*
X750699Y296340D01*
X752940Y292460D01*
X755740Y288940D01*
X759040Y285880D01*
X762740Y283360D01*
X766780Y281420D01*
X771080Y280080D01*
X775520Y279420D01*
X780000Y279420D01*
X784440Y280080D01*
X788740Y281420D01*
X792780Y283360D01*
X796480Y285880D01*
X799640Y288820D01*
X800900Y289620D01*
X802360Y289880D01*
X803820Y289620D01*
X805080Y288820D01*
X806460Y287540D01*
X807460Y286100D01*
X807740Y284360D01*
X807240Y282680D01*
X782159Y237260D01*
X781280Y236160D01*
X780060Y235460D01*
X778660Y235200D01*
X597420Y235200D01*
X595980Y235460D01*
X594740Y236240D01*
X496500Y325540D01*
X495540Y326880D01*
X495200Y328500D01*
X495200Y605800D01*
X495500Y607340D01*
X496380Y608640D01*
X497660Y609500D01*
X499200Y609800D01*
X509780Y609800D01*
X512260Y610100D01*
X514420Y610840D01*
X516340Y612060D01*
X517960Y613660D01*
X519159Y615600D01*
X519920Y617740D01*
X520200Y620240D01*
X520200Y679780D01*
X519920Y682280D01*
X519159Y684419D01*
X517960Y686360D01*
X516340Y687960D01*
X514420Y689180D01*
X512260Y689920D01*
X509780Y690200D01*
X450220Y690200D01*
X447740Y689920D01*
X445580Y689180D01*
X443660Y687960D01*
X442040Y686360D01*
X440840Y684419D01*
X440080Y682280D01*
X439799Y679780D01*
X439799Y620240D01*
X440080Y617740D01*
X440840Y615600D01*
X442040Y613660D01*
X443660Y612060D01*
X445580Y610840D01*
X447740Y610100D01*
X450220Y609800D01*
X460800Y609800D01*
X462340Y609500D01*
X463620Y608640D01*
X464500Y607340D01*
X464799Y605800D01*
X464820Y319420D01*
X465260Y316340D01*
X466260Y313540D01*
X467800Y310980D01*
X469920Y308620D01*
X579640Y208880D01*
X582180Y207000D01*
X584860Y205720D01*
X587800Y204980D01*
G37*
G36*
X1218420Y279420D02*
G01*
X1222920Y279420D01*
X1227360Y280080D01*
X1231640Y281420D01*
X1235680Y283360D01*
X1239400Y285880D01*
X1242680Y288940D01*
X1245480Y292460D01*
X1247720Y296340D01*
X1249360Y300520D01*
X1250360Y304900D01*
X1250720Y309520D01*
X1250720Y348900D01*
X1250360Y353519D01*
X1249360Y357900D01*
X1247720Y362080D01*
X1245480Y365959D01*
X1242680Y369480D01*
X1239400Y372540D01*
X1235680Y375060D01*
X1231640Y377000D01*
X1227360Y378340D01*
X1222920Y379000D01*
X1218420Y379000D01*
X1213980Y378340D01*
X1209700Y377000D01*
X1205660Y375060D01*
X1201940Y372540D01*
X1198660Y369480D01*
X1195860Y365959D01*
X1193620Y362080D01*
X1191980Y357900D01*
X1190980Y353519D01*
X1190620Y348900D01*
X1190620Y309520D01*
X1190980Y304900D01*
X1191980Y300520D01*
X1193620Y296340D01*
X1195860Y292460D01*
X1198660Y288940D01*
X1201940Y285880D01*
X1205660Y283360D01*
X1209700Y281420D01*
X1213980Y280080D01*
G37*
G36*
X677080Y279420D02*
G01*
X681580Y279420D01*
X686020Y280080D01*
X690300Y281420D01*
X694340Y283360D01*
X698060Y285880D01*
X701340Y288940D01*
X704140Y292460D01*
X706380Y296340D01*
X708020Y300520D01*
X709020Y304900D01*
X709380Y309520D01*
X709380Y348900D01*
X709020Y353519D01*
X708020Y357900D01*
X706380Y362080D01*
X704140Y365959D01*
X701340Y369480D01*
X698060Y372540D01*
X694340Y375060D01*
X690300Y377000D01*
X686020Y378340D01*
X681580Y379000D01*
X677080Y379000D01*
X672640Y378340D01*
X668360Y377000D01*
X664320Y375060D01*
X660600Y372540D01*
X657320Y369480D01*
X654520Y365959D01*
X652280Y362080D01*
X650639Y357900D01*
X649640Y353519D01*
X649280Y348900D01*
X649280Y309520D01*
X649640Y304900D01*
X650639Y300520D01*
X652280Y296340D01*
X654520Y292460D01*
X657320Y288940D01*
X660600Y285880D01*
X664320Y283360D01*
X668360Y281420D01*
X672640Y280080D01*
G37*
G36*
X677320Y609900D02*
G01*
X682680Y609900D01*
X688000Y610620D01*
X693180Y612040D01*
X698120Y614120D01*
X702740Y616860D01*
X706960Y620200D01*
X710699Y624060D01*
X713880Y628380D01*
X716460Y633080D01*
X718379Y638100D01*
X719640Y643319D01*
X720160Y648660D01*
X719980Y654020D01*
X719100Y659320D01*
X717500Y664440D01*
X715240Y669320D01*
X712360Y673840D01*
X708900Y677940D01*
X704900Y681540D01*
X700480Y684580D01*
X695699Y687000D01*
X690620Y688760D01*
X685360Y689840D01*
X680000Y690200D01*
X674640Y689840D01*
X669380Y688760D01*
X664300Y687000D01*
X659520Y684580D01*
X655100Y681540D01*
X651100Y677940D01*
X647640Y673840D01*
X644760Y669320D01*
X642500Y664440D01*
X640900Y659320D01*
X640020Y654020D01*
X639840Y648660D01*
X640360Y643319D01*
X641620Y638100D01*
X643540Y633080D01*
X646120Y628380D01*
X649300Y624060D01*
X653040Y620200D01*
X657260Y616860D01*
X661880Y614120D01*
X666820Y612040D01*
X672000Y610620D01*
G37*
G36*
X1380540Y745660D02*
G01*
X1385920Y745840D01*
X1391200Y746740D01*
X1396339Y748319D01*
X1401200Y750580D01*
X1405740Y753480D01*
X1409840Y756940D01*
X1413440Y760920D01*
X1416480Y765340D01*
X1418899Y770140D01*
X1420660Y775220D01*
X1421720Y780480D01*
X1422080Y785819D01*
X1421720Y791180D01*
X1420660Y796440D01*
X1418899Y801520D01*
X1416480Y806320D01*
X1413440Y810740D01*
X1409840Y814720D01*
X1405740Y818180D01*
X1401200Y821080D01*
X1396339Y823340D01*
X1391200Y824920D01*
X1385920Y825819D01*
X1380540Y826000D01*
X1375200Y825460D01*
X1369980Y824220D01*
X1364980Y822280D01*
X1360260Y819700D01*
X1355940Y816520D01*
X1352080Y812780D01*
X1348760Y808580D01*
X1346020Y803960D01*
X1343920Y799020D01*
X1342500Y793840D01*
X1341780Y788520D01*
X1341780Y783139D01*
X1342500Y777820D01*
X1343920Y772640D01*
X1346020Y767700D01*
X1348760Y763080D01*
X1352080Y758880D01*
X1355940Y755140D01*
X1360260Y751960D01*
X1364980Y749380D01*
X1369980Y747440D01*
X1375200Y746200D01*
G37*
G36*
X1380540Y1045660D02*
G01*
X1385920Y1045840D01*
X1391200Y1046720D01*
X1396339Y1048319D01*
X1401200Y1050580D01*
X1405740Y1053460D01*
X1409840Y1056920D01*
X1413440Y1060920D01*
X1416480Y1065340D01*
X1418899Y1070120D01*
X1420660Y1075200D01*
X1421720Y1080460D01*
X1422080Y1085820D01*
X1421720Y1091180D01*
X1420660Y1096440D01*
X1418899Y1101520D01*
X1416480Y1106300D01*
X1413440Y1110720D01*
X1409840Y1114720D01*
X1405740Y1118180D01*
X1401200Y1121060D01*
X1396339Y1123320D01*
X1391200Y1124920D01*
X1385920Y1125800D01*
X1380540Y1125980D01*
X1375200Y1125460D01*
X1369980Y1124200D01*
X1364980Y1122280D01*
X1360260Y1119700D01*
X1355940Y1116520D01*
X1352080Y1112780D01*
X1348760Y1108560D01*
X1346020Y1103940D01*
X1343920Y1099000D01*
X1342500Y1093820D01*
X1341780Y1088500D01*
X1341780Y1083140D01*
X1342500Y1077820D01*
X1343920Y1072640D01*
X1346020Y1067700D01*
X1348760Y1063080D01*
X1352080Y1058860D01*
X1355940Y1055120D01*
X1360260Y1051940D01*
X1364980Y1049360D01*
X1369980Y1047440D01*
X1375200Y1046180D01*
G37*

%LPD*%
G36*
X1048420Y368540D02*
G01*
X1046960Y368800D01*
X1045699Y369600D01*
X1041060Y374000D01*
X1040540Y375660D01*
X1040759Y377380D01*
X1041680Y378860D01*
X1046000Y383180D01*
X1047300Y384040D01*
X1048840Y384340D01*
X1050360Y384040D01*
X1051660Y383180D01*
X1052520Y381880D01*
X1052840Y380340D01*
X1052840Y372900D01*
X1052500Y371300D01*
X1051140Y369600D01*
X1049880Y368800D01*
G37*

%LPD*%
D10*
X1381890Y1185820D02*
G01*
X1220080Y1185040D01*
X1173900Y1138860D01*
X1173900Y470120D01*
X1115190Y411420D01*
X1052750Y411420D01*
X1023820Y382490D01*
X1023820Y329210D01*
X1073230Y785830D02*
G01*
X925390Y637990D01*
X925390Y329210D01*
D11*
X1381890Y985819D02*
G01*
X1270080Y985819D01*
X1207870Y922830D01*
X1207870Y457239D01*
X1131340Y380710D01*
X1122240Y371610D01*
X1122240Y329210D01*
X1381890Y885819D02*
G01*
X1355820Y885819D01*
X1250000Y780000D01*
X1250000Y460000D01*
X1171460Y381460D01*
X1171460Y329210D01*
X1073030Y329210D02*
G01*
X1073030Y380710D01*
X1131340Y380710D01*
D10*
X580000Y650010D02*
G01*
X777760Y452250D01*
X777760Y329210D01*
X480000Y650010D02*
G01*
X480000Y320000D01*
X590000Y220000D01*
X790000Y220000D01*
X826970Y286970D01*
X826970Y329210D01*
D12*
G01*
X1381890Y1185820D03*
D13*
G01*
X1381890Y1085820D03*
G01*
X1381890Y985819D03*
G01*
X1381890Y885819D03*
G01*
X1381890Y785830D03*
D14*
G01*
X679330Y329210D03*
G01*
X728540Y329210D03*
G01*
X777760Y329210D03*
G01*
X826970Y329210D03*
G01*
X876180Y329210D03*
G01*
X925390Y329210D03*
G01*
X974610Y329210D03*
G01*
X1023820Y329210D03*
G01*
X1073030Y329210D03*
G01*
X1122240Y329210D03*
G01*
X1171460Y329210D03*
G01*
X1220670Y329210D03*
D12*
G01*
X480000Y650010D03*
D13*
G01*
X580000Y650010D03*
G01*
X680000Y650000D03*
G01*
X780000Y650000D03*
D15*
G01*
X104330Y84650D03*
G01*
X1368500Y84650D03*
G01*
X748420Y1975980D03*
D17*
G01*
X1073230Y785830D03*
M02*
